%TF.GenerationSoftware,KiCad,Pcbnew,10.0.1*%
%TF.CreationDate,2026-05-28T02:14:32+08:00*%
%TF.ProjectId,board,626f6172-642e-46b6-9963-61645f706362,rev?*%
%TF.SameCoordinates,Original*%
%TF.FileFunction,Legend,Top*%
%TF.FilePolarity,Positive*%
%FSLAX46Y46*%
G04 Gerber Fmt 4.6, Leading zero omitted, Abs format (unit mm)*
G04 Created by KiCad (PCBNEW 10.0.1) date 2026-05-28 02:14:32*
%MOMM*%
%LPD*%
G01*
G04 APERTURE LIST*
%ADD10C,0.150000*%
G04 APERTURE END LIST*
D10*
X123666666Y-98954819D02*
X123333333Y-98478628D01*
X123095238Y-98954819D02*
X123095238Y-97954819D01*
X123095238Y-97954819D02*
X123476190Y-97954819D01*
X123476190Y-97954819D02*
X123571428Y-98002438D01*
X123571428Y-98002438D02*
X123619047Y-98050057D01*
X123619047Y-98050057D02*
X123666666Y-98145295D01*
X123666666Y-98145295D02*
X123666666Y-98288152D01*
X123666666Y-98288152D02*
X123619047Y-98383390D01*
X123619047Y-98383390D02*
X123571428Y-98431009D01*
X123571428Y-98431009D02*
X123476190Y-98478628D01*
X123476190Y-98478628D02*
X123095238Y-98478628D01*
X124095238Y-98431009D02*
X124428571Y-98431009D01*
X124571428Y-98954819D02*
X124095238Y-98954819D01*
X124095238Y-98954819D02*
X124095238Y-97954819D01*
X124095238Y-97954819D02*
X124571428Y-97954819D01*
X125333333Y-98431009D02*
X125000000Y-98431009D01*
X125000000Y-98954819D02*
X125000000Y-97954819D01*
X125000000Y-97954819D02*
X125476190Y-97954819D01*
X126000000Y-97954819D02*
X126000000Y-98192914D01*
X125761905Y-98097676D02*
X126000000Y-98192914D01*
X126000000Y-98192914D02*
X126238095Y-98097676D01*
X125857143Y-98383390D02*
X126000000Y-98192914D01*
X126000000Y-98192914D02*
X126142857Y-98383390D01*
X126761905Y-97954819D02*
X126761905Y-98192914D01*
X126523810Y-98097676D02*
X126761905Y-98192914D01*
X126761905Y-98192914D02*
X127000000Y-98097676D01*
X126619048Y-98383390D02*
X126761905Y-98192914D01*
X126761905Y-98192914D02*
X126904762Y-98383390D01*
M02*
