%TF.GenerationSoftware,KiCad,Pcbnew,10.0.1*%
%TF.CreationDate,2026-05-28T02:54:01+08:00*%
%TF.ProjectId,board,626f6172-642e-46b6-9963-61645f706362,rev?*%
%TF.SameCoordinates,Original*%
%TF.FileFunction,Copper,L2,Bot*%
%TF.FilePolarity,Positive*%
%FSLAX46Y46*%
G04 Gerber Fmt 4.6, Leading zero omitted, Abs format (unit mm)*
G04 Created by KiCad (PCBNEW 10.0.1) date 2026-05-28 02:54:01*
%MOMM*%
%LPD*%
G01*
G04 APERTURE LIST*
%TA.AperFunction,EtchedComponent*%
%ADD10C,0.127000*%
%TD*%
%TA.AperFunction,ComponentPad*%
%ADD11C,0.500000*%
%TD*%
G04 APERTURE END LIST*
%TO.C,REF\u002A\u002A*%
D10*
X105000000Y-104100000D02*
X105000000Y-105900000D01*
X105000000Y-114100000D02*
X105000000Y-115900000D01*
X105000000Y-124100000D02*
X105000000Y-125900000D01*
X105000000Y-134100000D02*
X105000000Y-135900000D01*
X105000000Y-144100000D02*
X105000000Y-145900000D01*
X115000000Y-104100000D02*
X115000000Y-105900000D01*
X115000000Y-114100000D02*
X115000000Y-115900000D01*
X115000000Y-124100000D02*
X115000000Y-125900000D01*
X115000000Y-134100000D02*
X115000000Y-135900000D01*
X115000000Y-144100000D02*
X115000000Y-145900000D01*
X125000000Y-104100000D02*
X125000000Y-105900000D01*
X125000000Y-114100000D02*
X125000000Y-115900000D01*
X125000000Y-124100000D02*
X125000000Y-125900000D01*
X125000000Y-134100000D02*
X125000000Y-135900000D01*
X125000000Y-144100000D02*
X125000000Y-145900000D01*
X135000000Y-104100000D02*
X135000000Y-105900000D01*
X135000000Y-114100000D02*
X135000000Y-115900000D01*
X135000000Y-124100000D02*
X135000000Y-125900000D01*
X135000000Y-134100000D02*
X135000000Y-135900000D01*
X135000000Y-144100000D02*
X135000000Y-145900000D01*
X145000000Y-104100000D02*
X145000000Y-105900000D01*
X145000000Y-114100000D02*
X145000000Y-115900000D01*
X145000000Y-124100000D02*
X145000000Y-125900000D01*
X145000000Y-134100000D02*
X145000000Y-135900000D01*
X145000000Y-144100000D02*
X145000000Y-145900000D01*
%TD*%
D11*
%TO.P,REF\u002A\u002A,v_c0*%
%TO.N,N/C*%
X105000000Y-104100000D03*
X105000000Y-114100000D03*
X105000000Y-124100000D03*
X105000000Y-134100000D03*
X105000000Y-144100000D03*
X105000000Y-145900000D03*
X105000000Y-135900000D03*
X105000000Y-125900000D03*
X105000000Y-115900000D03*
X105000000Y-105900000D03*
%TO.P,REF\u002A\u002A,v_c1*%
X115000000Y-104100000D03*
X115000000Y-114100000D03*
X115000000Y-124100000D03*
X115000000Y-134100000D03*
X115000000Y-144100000D03*
X115000000Y-145900000D03*
X115000000Y-135900000D03*
X115000000Y-125900000D03*
X115000000Y-115900000D03*
X115000000Y-105900000D03*
%TO.P,REF\u002A\u002A,v_c2*%
X125000000Y-104100000D03*
X125000000Y-114100000D03*
X125000000Y-124100000D03*
X125000000Y-134100000D03*
X125000000Y-144100000D03*
X125000000Y-145900000D03*
X125000000Y-135900000D03*
X125000000Y-125900000D03*
X125000000Y-115900000D03*
X125000000Y-105900000D03*
%TO.P,REF\u002A\u002A,v_c3*%
X135000000Y-104100000D03*
X135000000Y-114100000D03*
X135000000Y-124100000D03*
X135000000Y-134100000D03*
X135000000Y-144100000D03*
X135000000Y-145900000D03*
X135000000Y-135900000D03*
X135000000Y-125900000D03*
X135000000Y-115900000D03*
X135000000Y-105900000D03*
%TO.P,REF\u002A\u002A,v_c4*%
X145000000Y-104100000D03*
X145000000Y-114100000D03*
X145000000Y-124100000D03*
X145000000Y-134100000D03*
X145000000Y-144100000D03*
X145000000Y-145900000D03*
X145000000Y-135900000D03*
X145000000Y-125900000D03*
X145000000Y-115900000D03*
X145000000Y-105900000D03*
%TD*%
M02*
