%TF.GenerationSoftware,KiCad,Pcbnew,10.0.1*%
%TF.CreationDate,2026-05-28T02:01:26+08:00*%
%TF.ProjectId,board,626f6172-642e-46b6-9963-61645f706362,rev?*%
%TF.SameCoordinates,Original*%
%TF.FileFunction,Soldermask,Top*%
%TF.FilePolarity,Negative*%
%FSLAX46Y46*%
G04 Gerber Fmt 4.6, Leading zero omitted, Abs format (unit mm)*
G04 Created by KiCad (PCBNEW 10.0.1) date 2026-05-28 02:01:26*
%MOMM*%
%LPD*%
G01*
G04 APERTURE LIST*
%ADD10C,0.500000*%
G04 APERTURE END LIST*
D10*
%TO.C,REF\u002A\u002A*%
X105000000Y-104200000D03*
X105000000Y-114200000D03*
X105000000Y-124200000D03*
X105000000Y-134200000D03*
X105000000Y-144200000D03*
X105000000Y-145800000D03*
X105000000Y-135800000D03*
X105000000Y-125800000D03*
X105000000Y-115800000D03*
X105000000Y-105800000D03*
X115000000Y-104200000D03*
X115000000Y-114200000D03*
X115000000Y-124200000D03*
X115000000Y-134200000D03*
X115000000Y-144200000D03*
X115000000Y-145800000D03*
X115000000Y-135800000D03*
X115000000Y-125800000D03*
X115000000Y-115800000D03*
X115000000Y-105800000D03*
X125000000Y-104200000D03*
X125000000Y-114200000D03*
X125000000Y-124200000D03*
X125000000Y-134200000D03*
X125000000Y-144200000D03*
X125000000Y-145800000D03*
X125000000Y-135800000D03*
X125000000Y-125800000D03*
X125000000Y-115800000D03*
X125000000Y-105800000D03*
X135000000Y-104200000D03*
X135000000Y-114200000D03*
X135000000Y-124200000D03*
X135000000Y-134200000D03*
X135000000Y-144200000D03*
X135000000Y-145800000D03*
X135000000Y-135800000D03*
X135000000Y-125800000D03*
X135000000Y-115800000D03*
X135000000Y-105800000D03*
X145000000Y-104200000D03*
X145000000Y-114200000D03*
X145000000Y-124200000D03*
X145000000Y-134200000D03*
X145000000Y-144200000D03*
X145000000Y-145800000D03*
X145000000Y-135800000D03*
X145000000Y-125800000D03*
X145000000Y-115800000D03*
X145000000Y-105800000D03*
%TD*%
M02*
