%TF.GenerationSoftware,KiCad,Pcbnew,10.0.1*%
%TF.CreationDate,2026-05-28T02:54:01+08:00*%
%TF.ProjectId,board,626f6172-642e-46b6-9963-61645f706362,rev?*%
%TF.SameCoordinates,Original*%
%TF.FileFunction,Copper,L1,Top*%
%TF.FilePolarity,Positive*%
%FSLAX46Y46*%
G04 Gerber Fmt 4.6, Leading zero omitted, Abs format (unit mm)*
G04 Created by KiCad (PCBNEW 10.0.1) date 2026-05-28 02:54:01*
%MOMM*%
%LPD*%
G01*
G04 APERTURE LIST*
G04 Aperture macros list*
%AMFreePoly0*
4,1,4,0.000000,-2.400000,-4.800000,2.400000,4.800000,2.400000,0.000000,-2.400000,0.000000,-2.400000,$1*%
%AMFreePoly1*
4,1,4,4.800000,-2.400000,-4.800000,-2.400000,0.000000,2.400000,4.800000,-2.400000,4.800000,-2.400000,$1*%
%AMFreePoly2*
4,1,4,2.400000,-4.800000,-2.400000,0.000000,2.400000,4.800000,2.400000,-4.800000,2.400000,-4.800000,$1*%
%AMFreePoly3*
4,1,4,2.400000,0.000000,-2.400000,-4.800000,-2.400000,4.800000,2.400000,0.000000,2.400000,0.000000,$1*%
G04 Aperture macros list end*
%TA.AperFunction,EtchedComponent*%
%ADD10C,0.127000*%
%TD*%
%TA.AperFunction,SMDPad,CuDef*%
%ADD11FreePoly0,0.000000*%
%TD*%
%TA.AperFunction,SMDPad,CuDef*%
%ADD12FreePoly1,0.000000*%
%TD*%
%TA.AperFunction,SMDPad,CuDef*%
%ADD13FreePoly2,0.000000*%
%TD*%
%TA.AperFunction,SMDPad,CuDef*%
%ADD14FreePoly3,0.000000*%
%TD*%
%TA.AperFunction,ComponentPad*%
%ADD15C,0.500000*%
%TD*%
G04 APERTURE END LIST*
%TO.C,REF\u002A\u002A*%
D10*
X100000000Y-105000000D02*
X150000000Y-105000000D01*
X100000000Y-115000000D02*
X150000000Y-115000000D01*
X100000000Y-125000000D02*
X150000000Y-125000000D01*
X100000000Y-135000000D02*
X150000000Y-135000000D01*
X100000000Y-145000000D02*
X150000000Y-145000000D01*
%TD*%
D11*
%TO.P,REF\u002A\u002A,c0*%
%TO.N,N/C*%
X105000000Y-102400000D03*
X105000000Y-112400000D03*
X105000000Y-122400000D03*
X105000000Y-132400000D03*
X105000000Y-142400000D03*
D12*
X105000000Y-147600000D03*
X105000000Y-137600000D03*
X105000000Y-127600000D03*
X105000000Y-117600000D03*
X105000000Y-107600000D03*
D11*
%TO.P,REF\u002A\u002A,c1*%
X115000000Y-102400000D03*
X115000000Y-112400000D03*
X115000000Y-122400000D03*
X115000000Y-132400000D03*
X115000000Y-142400000D03*
D12*
X115000000Y-147600000D03*
X115000000Y-137600000D03*
X115000000Y-127600000D03*
X115000000Y-117600000D03*
X115000000Y-107600000D03*
D11*
%TO.P,REF\u002A\u002A,c2*%
X125000000Y-102400000D03*
X125000000Y-112400000D03*
X125000000Y-122400000D03*
X125000000Y-132400000D03*
X125000000Y-142400000D03*
D12*
X125000000Y-147600000D03*
X125000000Y-137600000D03*
X125000000Y-127600000D03*
X125000000Y-117600000D03*
X125000000Y-107600000D03*
D11*
%TO.P,REF\u002A\u002A,c3*%
X135000000Y-102400000D03*
X135000000Y-112400000D03*
X135000000Y-122400000D03*
X135000000Y-132400000D03*
X135000000Y-142400000D03*
D12*
X135000000Y-147600000D03*
X135000000Y-137600000D03*
X135000000Y-127600000D03*
X135000000Y-117600000D03*
X135000000Y-107600000D03*
D11*
%TO.P,REF\u002A\u002A,c4*%
X145000000Y-102400000D03*
X145000000Y-112400000D03*
X145000000Y-122400000D03*
X145000000Y-132400000D03*
X145000000Y-142400000D03*
D12*
X145000000Y-147600000D03*
X145000000Y-137600000D03*
X145000000Y-127600000D03*
X145000000Y-117600000D03*
X145000000Y-107600000D03*
D13*
%TO.P,REF\u002A\u002A,r0*%
X147600000Y-105000000D03*
X137600000Y-105000000D03*
X127600000Y-105000000D03*
X117600000Y-105000000D03*
X107600000Y-105000000D03*
D14*
X102400000Y-105000000D03*
X112400000Y-105000000D03*
X122400000Y-105000000D03*
X132400000Y-105000000D03*
X142400000Y-105000000D03*
D13*
%TO.P,REF\u002A\u002A,r1*%
X147600000Y-115000000D03*
X137600000Y-115000000D03*
X127600000Y-115000000D03*
X117600000Y-115000000D03*
X107600000Y-115000000D03*
D14*
X102400000Y-115000000D03*
X112400000Y-115000000D03*
X122400000Y-115000000D03*
X132400000Y-115000000D03*
X142400000Y-115000000D03*
D13*
%TO.P,REF\u002A\u002A,r2*%
X147600000Y-125000000D03*
X137600000Y-125000000D03*
X127600000Y-125000000D03*
X117600000Y-125000000D03*
X107600000Y-125000000D03*
D14*
X102400000Y-125000000D03*
X112400000Y-125000000D03*
X122400000Y-125000000D03*
X132400000Y-125000000D03*
X142400000Y-125000000D03*
D13*
%TO.P,REF\u002A\u002A,r3*%
X147600000Y-135000000D03*
X137600000Y-135000000D03*
X127600000Y-135000000D03*
X117600000Y-135000000D03*
X107600000Y-135000000D03*
D14*
X102400000Y-135000000D03*
X112400000Y-135000000D03*
X122400000Y-135000000D03*
X132400000Y-135000000D03*
X142400000Y-135000000D03*
D13*
%TO.P,REF\u002A\u002A,r4*%
X147600000Y-145000000D03*
X137600000Y-145000000D03*
X127600000Y-145000000D03*
X117600000Y-145000000D03*
X107600000Y-145000000D03*
D14*
X102400000Y-145000000D03*
X112400000Y-145000000D03*
X122400000Y-145000000D03*
X132400000Y-145000000D03*
X142400000Y-145000000D03*
D15*
%TO.P,REF\u002A\u002A,v_c0*%
X105000000Y-104100000D03*
X105000000Y-114100000D03*
X105000000Y-124100000D03*
X105000000Y-134100000D03*
X105000000Y-144100000D03*
X105000000Y-145900000D03*
X105000000Y-135900000D03*
X105000000Y-125900000D03*
X105000000Y-115900000D03*
X105000000Y-105900000D03*
%TO.P,REF\u002A\u002A,v_c1*%
X115000000Y-104100000D03*
X115000000Y-114100000D03*
X115000000Y-124100000D03*
X115000000Y-134100000D03*
X115000000Y-144100000D03*
X115000000Y-145900000D03*
X115000000Y-135900000D03*
X115000000Y-125900000D03*
X115000000Y-115900000D03*
X115000000Y-105900000D03*
%TO.P,REF\u002A\u002A,v_c2*%
X125000000Y-104100000D03*
X125000000Y-114100000D03*
X125000000Y-124100000D03*
X125000000Y-134100000D03*
X125000000Y-144100000D03*
X125000000Y-145900000D03*
X125000000Y-135900000D03*
X125000000Y-125900000D03*
X125000000Y-115900000D03*
X125000000Y-105900000D03*
%TO.P,REF\u002A\u002A,v_c3*%
X135000000Y-104100000D03*
X135000000Y-114100000D03*
X135000000Y-124100000D03*
X135000000Y-134100000D03*
X135000000Y-144100000D03*
X135000000Y-145900000D03*
X135000000Y-135900000D03*
X135000000Y-125900000D03*
X135000000Y-115900000D03*
X135000000Y-105900000D03*
%TO.P,REF\u002A\u002A,v_c4*%
X145000000Y-104100000D03*
X145000000Y-114100000D03*
X145000000Y-124100000D03*
X145000000Y-134100000D03*
X145000000Y-144100000D03*
X145000000Y-145900000D03*
X145000000Y-135900000D03*
X145000000Y-125900000D03*
X145000000Y-115900000D03*
X145000000Y-105900000D03*
%TD*%
M02*
